# xmcd
#
# Track frame offsets:
#	150
#	24092
#	51001
#	71614
#	94807
#	119185
#	142864
#	162275
#	180317
#	198402
#
# Disc length: 2919 seconds
#
# Revision: 1
# Processed by: cddbd v1.5.2PL0 Copyright (c) Steve Scherf et al.
# Submitted via: EZCDAudioConverter 2.5.0.1
#
DISCID=810b650a
DTITLE=Le Tan Quoc - Tinh Khuc Buon
DYEAR=2011
DGENRE=Vietnamese instrumental
TTITLE0=Mot Mai Em Di
TTITLE1=Tuoi Xa Nguoi
TTITLE2=Ao Lua Ha Dong
TTITLE3=Giot Nang Hong
TTITLE4=Tinh
TTITLE5=Ban Tinh Cuoi
TTITLE6=Dau Tinh Sau
TTITLE7=Giot Nuoc Mat Nga
TTITLE8=Mua Thu Cho Em
TTITLE9=Tinh Khuc Buon
EXTD=
EXTT0=
EXTT1=
EXTT2=
EXTT3=
EXTT4=
EXTT5=
EXTT6=
EXTT7=
EXTT8=
EXTT9=
PLAYORDER=
